<?xml version="1.0" standalone="no"?>
<!DOCTYPE svg PUBLIC "-//W3C//DTD SVG 20010904//EN"
 "http://www.w3.org/TR/2001/REC-SVG-20010904/DTD/svg10.dtd">
<svg version="1.0" xmlns="http://www.w3.org/2000/svg"
 width="752.000000pt" height="656.000000pt" viewBox="0 0 752.000000 656.000000"
 preserveAspectRatio="xMidYMid meet">
<metadata>
Created by potrace 1.16, written by Peter Selinger 2001-2019
</metadata>
<g transform="translate(0.000000,656.000000) scale(0.100000,-0.100000)"
fill="#0080AF" stroke="none">
<path d="M4610 6375 c-14 -15 -43 -36 -65 -47 -66 -34 -292 -243 -319 -297 -8
-16 -22 -31 -31 -35 -9 -3 -26 -29 -39 -58 -13 -29 -32 -61 -43 -71 -11 -9
-28 -44 -38 -77 -28 -93 -33 -91 219 -84 171 4 226 2 289 -11 42 -9 122 -20
177 -24 54 -5 104 -12 109 -16 27 -16 5 -322 -28 -396 -11 -25 -25 -67 -31
-94 -12 -55 -122 -286 -145 -305 -8 -7 -20 -30 -25 -51 -6 -22 -26 -55 -45
-74 -19 -19 -35 -39 -35 -45 0 -16 -143 -168 -240 -255 -70 -63 -187 -145
-207 -145 -35 0 -91 65 -109 128 -9 31 -27 78 -40 103 -15 30 -34 111 -55 230
-43 246 -46 315 -21 426 12 48 26 126 32 173 7 48 26 122 46 172 58 149 44
187 -65 174 -31 -4 -91 -11 -134 -16 -42 -5 -99 -19 -125 -30 -26 -12 -81 -28
-124 -35 -42 -8 -100 -26 -129 -41 -29 -14 -85 -35 -123 -46 -39 -11 -91 -30
-116 -43 -25 -13 -70 -36 -100 -50 -96 -46 -182 -94 -204 -114 -12 -11 -39
-27 -61 -36 -22 -9 -52 -28 -66 -41 -14 -13 -44 -37 -66 -52 -173 -115 -470
-416 -616 -623 -61 -85 -127 -191 -127 -202 0 -6 -11 -25 -25 -42 -13 -18 -33
-56 -44 -85 -11 -29 -32 -70 -46 -90 -15 -21 -32 -61 -40 -90 -8 -29 -20 -59
-28 -69 -27 -31 -45 -76 -57 -150 -7 -40 -25 -101 -41 -135 -23 -48 -31 -84
-38 -174 -13 -148 -54 -242 -98 -228 -22 7 -38 39 -47 97 -4 20 -20 54 -37 75
-17 22 -39 55 -49 74 -31 59 -261 300 -286 300 -5 0 -34 16 -66 35 -32 20 -81
43 -110 51 -29 9 -62 22 -74 29 -37 24 -127 45 -184 43 -30 -1 -71 2 -92 6
-31 7 -38 5 -48 -14 -25 -48 -24 -130 4 -210 14 -42 35 -111 46 -155 12 -49
29 -89 44 -105 13 -14 31 -41 39 -60 22 -55 186 -243 232 -267 17 -9 49 -33
72 -54 24 -22 48 -39 56 -39 7 0 36 -15 65 -34 31 -20 73 -37 100 -40 71 -10
112 -26 112 -42 0 -33 -76 -85 -162 -111 -71 -21 -264 -148 -298 -196 -8 -12
-44 -51 -78 -87 -35 -35 -75 -87 -89 -114 -14 -28 -34 -61 -44 -76 -17 -23
-41 -86 -101 -265 -11 -33 -20 -87 -20 -119 -1 -53 2 -62 27 -84 28 -23 34
-24 113 -19 57 4 100 14 137 31 30 13 78 29 109 36 30 6 72 24 94 40 22 15 58
38 81 50 23 11 63 37 89 57 61 46 208 207 233 255 10 21 33 53 49 72 22 25 33
51 40 93 16 101 77 120 100 30 6 -23 17 -64 25 -92 8 -27 19 -88 25 -135 6
-47 23 -114 37 -150 15 -35 32 -95 39 -133 7 -37 26 -92 43 -120 16 -29 32
-66 35 -83 4 -18 20 -51 35 -75 15 -24 35 -65 43 -90 9 -25 30 -65 47 -89 17
-24 31 -49 31 -56 0 -7 13 -28 29 -46 15 -18 56 -75 89 -127 72 -109 88 -128
281 -337 83 -88 161 -164 183 -175 21 -11 45 -30 54 -44 9 -13 25 -27 36 -31
12 -3 39 -23 62 -43 23 -21 58 -48 79 -60 20 -12 37 -26 37 -31 0 -5 26 -21
58 -35 31 -15 66 -35 77 -45 34 -29 174 -101 229 -117 28 -8 63 -24 77 -34 35
-25 73 -38 139 -51 30 -5 74 -21 97 -34 26 -15 83 -32 145 -43 57 -11 123 -28
148 -39 63 -28 246 -42 558 -42 323 0 470 12 554 43 35 13 86 27 113 31 88 12
149 28 200 54 28 14 76 31 107 38 32 8 81 27 110 43 29 16 71 34 93 41 22 7
54 23 71 36 18 13 51 31 75 40 24 10 60 32 80 50 20 17 47 35 60 39 13 4 33
15 44 25 11 10 41 31 66 47 26 15 71 46 100 69 52 39 278 251 367 344 67 69
196 237 232 302 11 21 33 52 48 70 16 18 38 51 49 73 107 207 153 301 153 312
0 8 15 43 34 78 19 36 39 93 45 131 7 37 23 88 35 113 28 55 35 85 46 194 5
45 22 145 39 222 29 130 31 154 32 340 1 184 -2 213 -30 360 -17 88 -38 212
-46 275 -11 84 -21 123 -38 150 -13 19 -33 74 -44 123 -12 48 -30 100 -41 115
-11 15 -29 54 -41 87 -29 79 -167 343 -196 375 -13 14 -32 43 -44 65 -22 41
-55 85 -139 188 -78 96 -364 380 -417 416 -51 34 -71 50 -158 121 -27 22 -54
40 -61 40 -7 0 -33 15 -57 32 -24 18 -66 44 -94 58 -27 15 -63 34 -80 43 -16
9 -50 26 -75 37 -25 11 -62 31 -84 44 -21 13 -57 27 -80 30 -22 4 -72 22 -111
41 -43 22 -93 37 -130 41 -41 5 -80 18 -122 41 l-63 35 0 63 c0 88 -17 208
-40 280 -11 33 -29 98 -40 145 -12 47 -29 93 -38 103 -9 10 -28 42 -42 70 -22
47 -29 52 -60 55 -28 2 -41 -3 -60 -23z m-1569 -1863 c52 -17 112 -33 134 -37
22 -4 63 -19 90 -35 28 -15 70 -34 95 -40 49 -13 156 -73 209 -117 19 -15 48
-36 65 -47 17 -10 75 -57 129 -103 81 -71 97 -90 97 -114 0 -40 -27 -49 -148
-49 -53 -1 -128 -5 -167 -10 -38 -5 -147 -18 -241 -29 -144 -16 -183 -24 -242
-50 -78 -34 -170 -43 -191 -17 -22 26 -60 106 -75 157 -9 29 -26 73 -38 98
-16 34 -24 74 -29 161 -4 63 -11 143 -14 176 -6 57 -4 63 17 79 36 26 188 14
309 -23z m1159 -553 c58 -13 149 -26 277 -39 63 -6 128 -20 169 -35 37 -14 97
-32 133 -41 36 -8 87 -26 112 -39 26 -13 78 -31 115 -40 74 -17 397 -173 519
-250 39 -24 91 -55 116 -69 25 -13 65 -40 90 -60 24 -19 66 -52 93 -73 26 -21
70 -57 97 -80 27 -24 53 -43 58 -43 14 0 181 -170 191 -194 13 -36 2 -67 -44
-112 -22 -22 -51 -52 -62 -65 -12 -13 -43 -40 -69 -59 -27 -19 -67 -54 -91
-77 -23 -24 -49 -43 -57 -43 -8 0 -37 -18 -63 -40 -27 -22 -53 -40 -59 -40 -6
0 -24 -14 -41 -31 -16 -17 -47 -40 -69 -51 -22 -12 -54 -31 -70 -44 -17 -12
-86 -51 -155 -86 -69 -35 -136 -72 -151 -81 -14 -9 -50 -25 -80 -36 -30 -10
-73 -28 -95 -39 -22 -11 -65 -25 -95 -30 -31 -6 -83 -24 -115 -40 -32 -16 -90
-35 -129 -42 -38 -6 -103 -23 -144 -36 -49 -17 -123 -30 -221 -39 -80 -8 -176
-18 -211 -24 -83 -12 -472 -7 -619 8 -246 26 -343 42 -394 65 -28 13 -81 27
-119 31 -46 4 -85 16 -123 36 -30 17 -81 35 -112 40 -31 6 -79 23 -107 39 -27
16 -76 35 -108 43 -33 9 -66 22 -75 30 -15 14 -89 55 -197 110 -46 23 -329
211 -392 260 -23 17 -59 46 -79 62 -77 60 -233 221 -239 247 -4 16 -1 37 9 56
26 49 245 250 348 317 53 35 99 69 103 75 8 13 116 85 164 110 20 10 60 34 90
54 29 20 61 36 71 36 9 0 35 12 56 27 21 14 65 36 96 49 32 12 70 31 85 42 16
10 57 27 93 36 36 10 75 24 87 32 12 8 29 14 38 14 26 0 114 -81 137 -125 60
-115 292 -355 394 -408 17 -9 37 -23 44 -32 8 -9 39 -29 70 -45 31 -16 62 -35
69 -44 7 -8 29 -20 49 -26 20 -7 71 -27 112 -45 71 -31 125 -45 369 -96 116
-24 173 -21 204 10 19 18 19 25 9 73 -10 49 -33 205 -48 323 -3 27 -16 70 -29
95 -13 25 -28 66 -35 90 -12 47 -60 140 -117 226 -18 29 -41 73 -50 99 -15 46
-15 49 2 62 22 16 130 17 195 2z M5175 3143 c-110 -23 -139 -59 -140 -168 0
-78 19 -122 68 -159 34 -25 147 -34 202 -16 32 11 41 21 66 76 16 35 29 79 29
98 0 39 -31 115 -57 139 -30 26 -115 42 -168 30z"/>
</g>
</svg>
