<svg width="274" height="59" viewBox="0 0 274 59" fill="none" xmlns="http://www.w3.org/2000/svg">
<g clip-path="url(#clip0_32_198)">
<path d="M22.9479 24.696C25.9633 23.719 29.1782 23.1901 32.5187 23.1901C32.6665 23.1901 32.807 23.1975 32.9474 23.2048C35.1202 25.8125 36.421 29.1621 36.421 32.8129C30.5676 32.8129 25.4903 29.522 22.9479 24.7033" fill="#007fac"/>
<path d="M62.776 32.8055C62.776 36.6693 61.926 40.3274 60.4184 43.633C60.3371 43.8093 60.2558 43.9782 60.1671 44.1545C55.9175 52.9325 46.8861 59.0073 36.421 59.0073C29.2817 59.0073 22.8001 56.1793 18.0553 51.5883C16.2816 49.8841 14.7517 47.9228 13.5175 45.7705C11.3224 41.9508 10.066 37.5288 10.066 32.8129C15.6977 38.7334 23.6722 42.4283 32.5188 42.4283C41.3653 42.4283 49.3398 38.7334 54.9789 32.8129C49.4359 26.9878 41.624 23.3223 32.9474 23.2048C30.1611 19.8405 25.9411 17.7029 21.2185 17.7029C21.2185 18.9664 21.3737 20.1931 21.6693 21.3611C21.9649 22.5364 22.401 23.6529 22.9479 24.696C17.9814 26.3047 13.5692 29.1254 10.066 32.8055C10.066 22.8669 15.6312 14.2285 23.8274 9.78436C25.8007 8.7119 27.9366 7.89654 30.1759 7.35296C31.4176 7.05914 32.6887 6.84611 33.9969 6.72858C31.9645 10.9817 31.9571 16.1089 34.4255 20.5383C37.6405 18.7681 39.9537 16.0134 41.1954 12.8622C41.8975 11.0845 42.2596 9.18202 42.2522 7.26481C53.9959 9.90924 62.7686 20.3327 62.7686 32.8055" fill="#007fac"/>
<path d="M0 22.8008C0 28.3247 4.50828 32.8055 10.066 32.8055C10.066 27.2816 5.55775 22.8008 0 22.8008Z" fill="#007fac"/>
<path d="M0 42.8103C5.55775 42.8103 10.066 38.3294 10.066 32.8055C4.50828 32.8055 0 37.2864 0 42.8103Z" fill="#007fac"/>
<path d="M47.1522 32.8055C47.1522 33.7898 46.3466 34.5905 45.3563 34.5905C44.3659 34.5905 43.5603 33.7898 43.5603 32.8055C43.5603 31.8212 44.3659 31.0205 45.3563 31.0205C46.3466 31.0205 47.1522 31.8212 47.1522 32.8055Z" fill="#007fac"/>
<path d="M36.421 6.61106C38.4091 6.61106 40.3528 6.83877 42.2153 7.25012C42.23 7.25012 42.2448 7.25747 42.2596 7.26482C42.2522 4.80403 41.6388 2.30652 40.3528 0C38.1282 1.22672 36.3397 2.92356 35.039 4.89218C34.6473 5.47983 34.3073 6.09686 34.0043 6.72859C34.3295 6.6992 34.662 6.66982 34.9946 6.65513C35.4676 6.62575 35.948 6.61106 36.4284 6.61106" fill="#007fac"/>
<path d="M201.003 34.3628C201.254 34.495 201.55 34.6272 201.882 34.7521C202.215 34.877 202.621 34.9431 203.102 34.9431C203.264 34.9431 203.42 34.9358 203.575 34.9211C203.73 34.9064 203.856 34.8696 203.966 34.8256C204.077 34.7815 204.166 34.7154 204.24 34.6419C204.314 34.5685 204.351 34.4656 204.351 34.3481C204.351 34.1865 204.269 34.0469 204.107 33.9221C203.944 33.7972 203.671 33.6723 203.294 33.5327L202.836 33.4079C202.562 33.3271 202.318 33.2316 202.089 33.1214C201.86 33.0112 201.668 32.8863 201.505 32.7394C201.343 32.5925 201.21 32.4162 201.114 32.2105C201.018 32.0049 200.973 31.7625 200.973 31.4833C200.973 31.1675 201.032 30.903 201.143 30.6826C201.261 30.4623 201.417 30.2786 201.616 30.1391C201.816 29.9995 202.052 29.904 202.318 29.8452C202.584 29.7865 202.873 29.7571 203.176 29.7571C203.56 29.7571 203.952 29.8012 204.358 29.8893C204.765 29.9775 205.142 30.1244 205.482 30.3227L205.356 31.5788C205.252 31.52 205.112 31.4539 204.935 31.3731C204.757 31.2923 204.565 31.2189 204.358 31.1454C204.151 31.072 203.937 31.0132 203.715 30.9691C203.493 30.925 203.287 30.903 203.094 30.903C202.873 30.903 202.688 30.9471 202.54 31.0279C202.392 31.1087 202.318 31.2629 202.318 31.4686C202.318 31.6743 202.4 31.8359 202.57 31.9681C202.74 32.1003 202.998 32.2252 203.368 32.3574L203.804 32.5117C204.048 32.5852 204.284 32.666 204.513 32.7541C204.742 32.8423 204.942 32.9451 205.119 33.0773C205.297 33.2095 205.437 33.3711 205.541 33.5621C205.644 33.7531 205.703 34.0029 205.703 34.2967C205.703 34.6346 205.629 34.9211 205.496 35.1488C205.356 35.3838 205.164 35.5675 204.927 35.707C204.691 35.8466 204.41 35.9495 204.085 36.0082C203.76 36.067 203.42 36.1037 203.065 36.1037C202.592 36.1037 202.178 36.0596 201.845 35.9715C201.505 35.8833 201.188 35.7658 200.892 35.6262L201.018 34.3701L201.003 34.3628Z" fill="#007fac"/>
<path d="M206.479 32.9231C206.479 32.4823 206.553 32.071 206.708 31.6816C206.864 31.2923 207.085 30.9544 207.374 30.668C207.662 30.3815 208.009 30.1538 208.408 29.9775C208.807 29.8012 209.251 29.7204 209.746 29.7204C210.241 29.7204 210.692 29.8085 211.091 29.9775C211.49 30.1464 211.823 30.3815 212.111 30.6753C212.399 30.9691 212.613 31.307 212.776 31.6963C212.931 32.0857 213.013 32.497 213.013 32.9377C213.013 33.3785 212.924 33.8119 212.754 34.2012C212.584 34.5905 212.355 34.9284 212.067 35.2075C211.778 35.4867 211.438 35.707 211.039 35.8687C210.64 36.0303 210.212 36.1037 209.746 36.1037C209.28 36.1037 208.859 36.0229 208.46 35.8687C208.061 35.7144 207.714 35.494 207.425 35.2075C207.137 34.9211 206.901 34.5905 206.738 34.2012C206.575 33.8119 206.487 33.3858 206.487 32.9231H206.479ZM209.746 34.8696C210.042 34.8696 210.308 34.8182 210.544 34.7154C210.781 34.6125 210.98 34.4803 211.143 34.304C211.305 34.1277 211.431 33.9221 211.52 33.687C211.601 33.4446 211.645 33.1875 211.645 32.9084C211.645 32.6292 211.601 32.3795 211.52 32.1444C211.438 31.9094 211.313 31.6963 211.143 31.5274C210.98 31.3511 210.781 31.2189 210.544 31.116C210.308 31.0132 210.042 30.9618 209.746 30.9618C209.45 30.9618 209.199 31.0132 208.963 31.116C208.726 31.2189 208.526 31.3511 208.364 31.5274C208.201 31.7037 208.068 31.9094 207.98 32.1444C207.891 32.3868 207.847 32.6366 207.847 32.9084C207.847 33.1802 207.891 33.4446 207.98 33.6797C208.068 33.9147 208.194 34.1204 208.364 34.2967C208.526 34.473 208.726 34.6125 208.963 34.7154C209.199 34.8182 209.458 34.8696 209.746 34.8696Z" fill="#007fac"/>
<path d="M215.666 27.0245V35.9715H214.313V27.0245H215.666Z" fill="#007fac"/>
<path d="M221.918 35.9715V34.664C221.83 34.877 221.711 35.068 221.556 35.2369C221.401 35.4132 221.216 35.5601 221.017 35.6924C220.81 35.8246 220.595 35.9274 220.351 35.9935C220.115 36.067 219.871 36.1037 219.627 36.1037C219.339 36.1037 219.058 36.0523 218.777 35.9421C218.496 35.8319 218.245 35.6703 218.031 35.4573C217.817 35.2443 217.639 34.9798 217.499 34.6566C217.366 34.3408 217.292 33.9735 217.292 33.5621V29.8526H218.666V33.5842C218.666 34.0176 218.799 34.3481 219.066 34.5905C219.332 34.8329 219.672 34.9505 220.078 34.9505C220.307 34.9505 220.529 34.9137 220.751 34.8329C220.965 34.7521 221.164 34.6419 221.334 34.4877C221.512 34.3408 221.652 34.1645 221.756 33.9514C221.859 33.7384 221.918 33.5107 221.918 33.2536V29.8526H223.271V35.9641H221.918V35.9715Z" fill="#007fac"/>
<path d="M224.875 31.6816C225.037 31.2923 225.266 30.9544 225.562 30.668C225.857 30.3815 226.22 30.1538 226.641 29.9775C227.062 29.8012 227.528 29.7204 228.045 29.7204C228.4 29.7204 228.747 29.7644 229.08 29.8599C229.412 29.9554 229.73 30.1023 230.018 30.3007V31.9094C229.871 31.6743 229.634 31.4539 229.294 31.2556C228.954 31.0573 228.54 30.9618 228.06 30.9618C227.735 30.9618 227.446 31.0132 227.195 31.116C226.937 31.2189 226.722 31.3511 226.545 31.5274C226.367 31.7037 226.227 31.9094 226.131 32.1444C226.035 32.3868 225.983 32.6366 225.983 32.9084C225.983 33.1802 226.035 33.4446 226.131 33.6797C226.227 33.9147 226.367 34.1204 226.545 34.2967C226.722 34.473 226.937 34.6125 227.195 34.7154C227.446 34.8182 227.742 34.8696 228.075 34.8696C228.511 34.8696 228.895 34.7815 229.25 34.6125C229.597 34.4363 229.848 34.2232 230.004 33.9588V35.5308C229.73 35.7144 229.435 35.8613 229.109 35.9568C228.784 36.0523 228.437 36.1037 228.053 36.1037H227.749L227.646 36.5224C227.934 36.5591 228.171 36.6546 228.363 36.8089C228.548 36.9631 228.644 37.2056 228.644 37.5214C228.644 37.7271 228.599 37.896 228.511 38.043C228.422 38.1899 228.304 38.3 228.163 38.3882C228.023 38.469 227.868 38.5351 227.69 38.5792C227.513 38.6233 227.343 38.6453 227.173 38.6453C226.981 38.6453 226.789 38.6233 226.611 38.5792C226.434 38.5351 226.257 38.4617 226.087 38.3662L226.353 37.7197C226.471 37.7785 226.597 37.8226 226.737 37.8593C226.877 37.896 227.01 37.9107 227.143 37.9107C227.291 37.9107 227.424 37.8814 227.557 37.8226C227.69 37.7638 227.757 37.6463 227.757 37.47C227.757 37.3525 227.72 37.2643 227.646 37.1982C227.572 37.1321 227.483 37.0954 227.38 37.0733C227.276 37.0513 227.166 37.0439 227.047 37.0439H226.759L227.04 35.9935C226.678 35.898 226.345 35.7585 226.05 35.5748C225.754 35.3912 225.503 35.1635 225.288 34.899C225.074 34.6346 224.911 34.3334 224.801 34.0102C224.682 33.6797 224.631 33.3271 224.631 32.9451C224.631 32.5044 224.712 32.093 224.875 31.7037V31.6816Z" fill="#007fac"/>
<path d="M230.92 32.9231C230.92 32.4823 230.994 32.071 231.149 31.6817C231.304 31.2923 231.526 30.9544 231.814 30.668C232.103 30.3815 232.45 30.1538 232.849 29.9775C233.248 29.8012 233.692 29.7204 234.187 29.7204C234.682 29.7204 235.133 29.8085 235.532 29.9775C235.924 30.1538 236.263 30.3815 236.552 30.6753C236.84 30.9691 237.054 31.307 237.217 31.6963C237.372 32.0857 237.453 32.497 237.453 32.9378C237.453 33.3785 237.372 33.8119 237.202 34.2012C237.032 34.5905 236.803 34.9284 236.515 35.2075C236.227 35.4867 235.887 35.7071 235.487 35.8687C235.088 36.0303 234.66 36.1037 234.194 36.1037C233.729 36.1037 233.307 36.0229 232.908 35.8687C232.509 35.7144 232.162 35.494 231.873 35.2075C231.585 34.9211 231.349 34.5905 231.186 34.2012C231.024 33.8119 230.935 33.3858 230.935 32.9231H230.92ZM232.154 29.0078C232.162 28.8242 232.184 28.6406 232.221 28.4643C232.258 28.288 232.317 28.1264 232.398 27.9868C232.479 27.8472 232.605 27.7371 232.768 27.6489C232.93 27.5681 233.13 27.524 233.381 27.524C233.559 27.524 233.721 27.5608 233.862 27.6342C234.002 27.7077 234.135 27.7811 234.253 27.8693C234.379 27.9501 234.49 28.0309 234.601 28.1043C234.704 28.1778 234.815 28.2145 234.926 28.2145C235.074 28.2145 235.17 28.1484 235.221 28.0235C235.281 27.8987 235.303 27.7591 235.303 27.6048H236.197C236.19 27.7811 236.167 27.9574 236.13 28.1264C236.094 28.2953 236.027 28.4496 235.931 28.5818C235.835 28.714 235.717 28.8316 235.561 28.9197C235.406 29.0078 235.221 29.0519 235 29.0519C234.815 29.0519 234.645 29.0152 234.505 28.9491C234.357 28.883 234.231 28.8095 234.113 28.7287C233.995 28.6479 233.891 28.5745 233.795 28.5157C233.699 28.4496 233.595 28.4202 233.485 28.4202C233.292 28.4202 233.167 28.479 233.13 28.6038C233.086 28.7287 233.063 28.8609 233.063 29.0152H232.162L232.154 29.0078ZM234.179 34.8696C234.475 34.8696 234.741 34.8182 234.978 34.7154C235.214 34.6126 235.414 34.4803 235.576 34.304C235.739 34.1277 235.864 33.9221 235.953 33.687C236.034 33.4446 236.079 33.1875 236.079 32.9084C236.079 32.6292 236.034 32.3795 235.953 32.1444C235.872 31.9094 235.746 31.6963 235.576 31.5274C235.414 31.3511 235.214 31.2189 234.978 31.116C234.741 31.0132 234.482 30.9618 234.179 30.9618C233.876 30.9618 233.632 31.0132 233.396 31.116C233.159 31.2189 232.96 31.3511 232.797 31.5274C232.635 31.7037 232.502 31.9094 232.413 32.1444C232.324 32.3868 232.28 32.6366 232.28 32.9084C232.28 33.1802 232.324 33.4446 232.413 33.6797C232.502 33.9147 232.627 34.1204 232.797 34.2967C232.967 34.473 233.159 34.6126 233.396 34.7154C233.632 34.8182 233.891 34.8696 234.179 34.8696Z" fill="#007fac"/>
<path d="M239.774 33.1655C239.789 33.4299 239.848 33.665 239.951 33.878C240.055 34.091 240.188 34.282 240.365 34.4363C240.543 34.5905 240.75 34.7154 240.986 34.8109C241.223 34.9064 241.496 34.9504 241.792 34.9504C242.243 34.9504 242.619 34.855 242.915 34.6713C243.218 34.4877 243.455 34.2526 243.632 33.9661L244.726 34.4877C244.593 34.7301 244.423 34.9578 244.231 35.1561C244.038 35.3545 243.817 35.5234 243.565 35.6703C243.322 35.8172 243.041 35.9274 242.738 36.0009C242.435 36.0743 242.102 36.1184 241.747 36.1184C241.245 36.1184 240.794 36.0376 240.387 35.8833C239.981 35.7291 239.626 35.5087 239.338 35.2296C239.042 34.9504 238.821 34.6125 238.658 34.2232C238.495 33.8339 238.414 33.4005 238.414 32.9377C238.414 32.475 238.495 32.0342 238.658 31.6376C238.821 31.2483 239.05 30.9104 239.338 30.6312C239.626 30.3521 239.974 30.1317 240.373 29.9701C240.772 29.8085 241.208 29.7277 241.673 29.7277C242.139 29.7277 242.553 29.8085 242.945 29.9628C243.336 30.117 243.676 30.3374 243.965 30.6165C244.253 30.8957 244.475 31.2262 244.637 31.6082C244.8 31.9902 244.881 32.4162 244.881 32.879V33.1728H239.759L239.774 33.1655ZM243.462 32.2105C243.351 31.8139 243.144 31.4907 242.841 31.2336C242.538 30.9838 242.146 30.8516 241.681 30.8516C241.215 30.8516 240.831 30.9765 240.506 31.2336C240.181 31.4907 239.959 31.8139 239.841 32.2105H243.455H243.462Z" fill="#007fac"/>
<path d="M245.834 34.3628C246.086 34.495 246.381 34.6272 246.714 34.7521C247.046 34.877 247.453 34.9431 247.933 34.9431C248.096 34.9431 248.251 34.9358 248.406 34.9211C248.561 34.9064 248.687 34.8696 248.798 34.8256C248.909 34.7815 248.998 34.7154 249.071 34.6419C249.145 34.5685 249.182 34.4656 249.182 34.3481C249.182 34.1865 249.101 34.0469 248.938 33.9221C248.776 33.7972 248.502 33.6723 248.125 33.5327L247.667 33.4079C247.394 33.3271 247.15 33.2316 246.921 33.1214C246.692 33.0112 246.5 32.8863 246.337 32.7394C246.174 32.5925 246.041 32.4162 245.945 32.2105C245.849 32.0049 245.805 31.7625 245.805 31.4833C245.805 31.1675 245.864 30.903 245.975 30.6826C246.093 30.4623 246.248 30.2786 246.448 30.1391C246.647 29.9995 246.884 29.904 247.15 29.8452C247.416 29.7865 247.704 29.7571 248.007 29.7571C248.392 29.7571 248.783 29.8012 249.19 29.8893C249.596 29.9775 249.973 30.1244 250.313 30.3227L250.187 31.5788C250.084 31.52 249.944 31.4539 249.766 31.3731C249.589 31.2923 249.397 31.2189 249.19 31.1454C248.983 31.072 248.768 31.0132 248.547 30.9691C248.325 30.925 248.118 30.903 247.926 30.903C247.704 30.903 247.519 30.9471 247.372 31.0279C247.224 31.1087 247.15 31.2629 247.15 31.4686C247.15 31.6743 247.231 31.8359 247.401 31.9681C247.571 32.1003 247.83 32.2252 248.199 32.3574L248.635 32.5117C248.879 32.5852 249.116 32.666 249.345 32.7541C249.574 32.8423 249.774 32.9451 249.951 33.0773C250.128 33.2095 250.269 33.3711 250.372 33.5621C250.476 33.7531 250.535 34.0029 250.535 34.2967C250.535 34.6346 250.461 34.9211 250.328 35.1488C250.187 35.3838 249.995 35.5675 249.759 35.707C249.522 35.8466 249.241 35.9495 248.916 36.0082C248.591 36.067 248.251 36.1037 247.896 36.1037C247.423 36.1037 247.009 36.0596 246.677 35.9715C246.337 35.8833 246.019 35.7658 245.724 35.6262L245.849 34.3701L245.834 34.3628Z" fill="#007fac"/>
<path d="M201.003 46.035C201.254 46.1672 201.55 46.2994 201.882 46.4243C202.215 46.5492 202.621 46.6153 203.102 46.6153C203.264 46.6153 203.42 46.608 203.575 46.5933C203.73 46.5786 203.856 46.5418 203.966 46.4978C204.077 46.4537 204.166 46.3876 204.24 46.3141C204.314 46.2407 204.351 46.1378 204.351 46.0203C204.351 45.8587 204.269 45.7191 204.107 45.5943C203.944 45.4694 203.671 45.3445 203.294 45.2049L202.836 45.0801C202.562 44.9993 202.318 44.9038 202.089 44.7936C201.86 44.6834 201.668 44.5585 201.505 44.4116C201.343 44.2647 201.21 44.0884 201.114 43.8827C201.018 43.677 200.973 43.4346 200.973 43.1555C200.973 42.8396 201.032 42.5752 201.143 42.3548C201.261 42.1345 201.417 41.9508 201.616 41.8113C201.816 41.6717 202.052 41.5762 202.318 41.5174C202.584 41.4587 202.873 41.4293 203.176 41.4293C203.56 41.4293 203.952 41.4734 204.358 41.5615C204.765 41.6497 205.142 41.7966 205.482 41.9949L205.356 43.251C205.252 43.1922 205.112 43.1261 204.935 43.0453C204.757 42.9645 204.565 42.8911 204.358 42.8176C204.151 42.7442 203.937 42.6854 203.715 42.6413C203.493 42.5972 203.287 42.5752 203.094 42.5752C202.873 42.5752 202.688 42.6193 202.54 42.7001C202.392 42.7809 202.318 42.9351 202.318 43.1408C202.318 43.3465 202.4 43.5081 202.57 43.6403C202.74 43.7725 202.998 43.8974 203.368 44.0296L203.804 44.1839C204.048 44.2574 204.284 44.3382 204.513 44.4263C204.742 44.5144 204.942 44.6173 205.119 44.7495C205.297 44.8817 205.437 45.0433 205.541 45.2343C205.644 45.4253 205.703 45.6751 205.703 45.9689C205.703 46.3068 205.629 46.5933 205.496 46.821C205.356 47.056 205.164 47.2397 204.927 47.3792C204.691 47.5188 204.41 47.6216 204.085 47.6804C203.76 47.7392 203.42 47.7759 203.065 47.7759C202.592 47.7759 202.178 47.7318 201.845 47.6437C201.505 47.5555 201.188 47.438 200.892 47.2984L201.018 46.0423L201.003 46.035Z" fill="#007fac"/>
<path d="M211.424 47.6437V46.3362C211.335 46.5492 211.217 46.7402 211.061 46.9091C210.906 47.0854 210.721 47.2323 210.522 47.3645C210.315 47.4968 210.101 47.5996 209.857 47.6657C209.62 47.7392 209.376 47.7759 209.132 47.7759C208.844 47.7759 208.563 47.7245 208.283 47.6143C208.002 47.5041 207.75 47.3425 207.536 47.1295C207.322 46.9165 207.144 46.652 207.004 46.3288C206.871 46.013 206.797 45.6457 206.797 45.2343V41.5248H208.172V45.2564C208.172 45.6897 208.305 46.0203 208.571 46.2627C208.837 46.5051 209.177 46.6226 209.583 46.6226C209.812 46.6226 210.034 46.5859 210.256 46.5051C210.47 46.4243 210.67 46.3141 210.84 46.1599C211.017 46.013 211.158 45.8367 211.261 45.6236C211.364 45.4106 211.424 45.1829 211.424 44.9258V41.5248H212.776V47.6363H211.424V47.6437Z" fill="#007fac"/>
<path d="M214.114 46.035C214.365 46.1672 214.661 46.2994 214.993 46.4243C215.326 46.5492 215.732 46.6153 216.213 46.6153C216.375 46.6153 216.531 46.608 216.686 46.5933C216.841 46.5786 216.967 46.5418 217.077 46.4978C217.188 46.4537 217.277 46.3876 217.351 46.3141C217.425 46.2407 217.462 46.1378 217.462 46.0203C217.462 45.8587 217.38 45.7191 217.218 45.5943C217.055 45.4694 216.782 45.3445 216.405 45.2049L215.947 45.0801C215.673 44.9993 215.429 44.9038 215.2 44.7936C214.971 44.6834 214.779 44.5585 214.616 44.4116C214.454 44.2647 214.321 44.0884 214.225 43.8827C214.129 43.677 214.084 43.4346 214.084 43.1555C214.084 42.8396 214.143 42.5752 214.254 42.3548C214.372 42.1345 214.528 41.9508 214.727 41.8113C214.927 41.6717 215.163 41.5762 215.429 41.5174C215.695 41.4587 215.984 41.4293 216.287 41.4293C216.671 41.4293 217.063 41.4734 217.469 41.5615C217.876 41.6497 218.253 41.7966 218.593 41.9949L218.467 43.251C218.363 43.1922 218.223 43.1261 218.046 43.0453C217.868 42.9645 217.676 42.8911 217.469 42.8176C217.262 42.7442 217.048 42.6854 216.826 42.6413C216.604 42.5972 216.398 42.5752 216.205 42.5752C215.984 42.5752 215.799 42.6193 215.651 42.7001C215.503 42.7809 215.429 42.9351 215.429 43.1408C215.429 43.3465 215.511 43.5081 215.681 43.6403C215.851 43.7725 216.109 43.8974 216.479 44.0296L216.915 44.1839C217.159 44.2574 217.395 44.3382 217.624 44.4263C217.853 44.5144 218.053 44.6173 218.23 44.7495C218.408 44.8817 218.548 45.0433 218.652 45.2343C218.755 45.4253 218.814 45.6751 218.814 45.9689C218.814 46.3068 218.74 46.5933 218.607 46.821C218.467 47.056 218.275 47.2397 218.038 47.3792C217.802 47.5188 217.521 47.6216 217.196 47.6804C216.87 47.7392 216.531 47.7759 216.176 47.7759C215.703 47.7759 215.289 47.7318 214.956 47.6437C214.616 47.5555 214.299 47.438 214.003 47.2984L214.129 46.0423L214.114 46.035Z" fill="#007fac"/>
<path d="M220.514 41.5248V40.0557L221.852 39.7912V41.5248H223.788V42.6634H221.874V46.4757H224.054V47.6437H222.096C221.874 47.6437 221.667 47.6143 221.475 47.5482C221.283 47.4821 221.113 47.3866 220.972 47.2617C220.832 47.1368 220.714 46.9752 220.632 46.7842C220.551 46.5933 220.514 46.3655 220.514 46.1011V42.6707H219.317V41.5321H220.514V41.5248Z" fill="#007fac"/>
<path d="M226.079 44.8303C226.094 45.0948 226.153 45.3298 226.257 45.5428C226.36 45.7559 226.493 45.9468 226.67 46.1011C226.848 46.2554 227.055 46.3802 227.291 46.4757C227.528 46.5712 227.801 46.6153 228.097 46.6153C228.548 46.6153 228.925 46.5198 229.22 46.3362C229.523 46.1525 229.76 45.9175 229.937 45.631L231.031 46.1525C230.898 46.3949 230.728 46.6226 230.536 46.821C230.344 47.0193 230.122 47.1883 229.871 47.3352C229.627 47.4821 229.346 47.5923 229.043 47.6657C228.74 47.7392 228.407 47.7833 228.053 47.7833C227.55 47.7833 227.099 47.7025 226.693 47.5482C226.286 47.3939 225.931 47.1736 225.643 46.8944C225.348 46.6153 225.126 46.2774 224.963 45.8881C224.801 45.4988 224.719 45.0654 224.719 44.6026C224.719 44.1398 224.801 43.6991 224.963 43.3024C225.126 42.9131 225.355 42.5752 225.643 42.2961C225.931 42.0169 226.279 41.7966 226.678 41.635C227.077 41.4734 227.513 41.3926 227.979 41.3926C228.444 41.3926 228.858 41.4734 229.25 41.6276C229.641 41.7819 229.981 42.0023 230.27 42.2814C230.558 42.5605 230.78 42.8911 230.942 43.273C231.105 43.655 231.186 44.0811 231.186 44.5438V44.8377H226.064L226.079 44.8303ZM229.775 43.8827C229.664 43.4861 229.457 43.1629 229.154 42.9058C228.851 42.656 228.459 42.5238 227.993 42.5238C227.528 42.5238 227.143 42.6487 226.818 42.9058C226.493 43.1629 226.271 43.4861 226.153 43.8827H229.767H229.775Z" fill="#007fac"/>
<path d="M232.576 47.6437V41.5321H233.876V42.9645C233.98 42.7442 234.105 42.5385 234.253 42.3475C234.401 42.1565 234.571 41.9876 234.763 41.848C234.955 41.7011 235.17 41.5909 235.399 41.5101C235.635 41.4293 235.887 41.3926 236.16 41.3926C236.567 41.3926 236.921 41.466 237.224 41.6056C237.527 41.7452 237.771 41.9508 237.971 42.2006C238.163 42.4577 238.311 42.7588 238.407 43.1041C238.503 43.4567 238.555 43.8313 238.555 44.2353V47.6437H237.202V44.3382C237.202 43.8313 237.084 43.42 236.847 43.0894C236.611 42.7662 236.227 42.6046 235.687 42.6046C235.391 42.6046 235.133 42.6707 234.911 42.8103C234.689 42.9498 234.505 43.1188 234.364 43.3098C234.216 43.5008 234.113 43.7138 234.032 43.9341C233.958 44.1545 233.913 44.3528 233.913 44.5218V47.6363H232.576V47.6437Z" fill="#007fac"/>
<path d="M240.498 41.5248V40.0557L241.836 39.7912V41.5248H243.772V42.6634H241.858V46.4757H244.038V47.6437H242.08C241.858 47.6437 241.651 47.6143 241.459 47.5482C241.267 47.4821 241.097 47.3866 240.957 47.2617C240.816 47.1368 240.698 46.9752 240.617 46.7842C240.535 46.5933 240.498 46.3655 240.498 46.1011V42.6707H239.301V41.5321H240.498V41.5248Z" fill="#007fac"/>
<path d="M249.818 47.6437V46.2774C249.737 46.5198 249.618 46.7402 249.471 46.9238C249.323 47.1074 249.153 47.2691 248.953 47.4013C248.761 47.5335 248.547 47.629 248.318 47.6951C248.089 47.7612 247.852 47.7906 247.616 47.7906C247.172 47.7906 246.773 47.7098 246.411 47.5482C246.049 47.3866 245.738 47.1662 245.472 46.8871C245.206 46.6079 244.999 46.27 244.851 45.8807C244.696 45.4914 244.622 45.0727 244.622 44.6246C244.622 44.1765 244.696 43.7432 244.844 43.3612C244.992 42.9792 245.199 42.634 245.457 42.3475C245.716 42.061 246.027 41.8333 246.381 41.6717C246.736 41.5101 247.128 41.4219 247.542 41.4219C248.044 41.4219 248.488 41.5468 248.872 41.7892C249.256 42.0316 249.559 42.4063 249.781 42.9131V41.5321H251.141V47.6437H249.818ZM245.997 44.5806C245.997 44.8597 246.041 45.1241 246.13 45.3665C246.219 45.6089 246.344 45.8293 246.514 46.013C246.677 46.1966 246.876 46.3435 247.113 46.4463C247.349 46.5492 247.608 46.6079 247.896 46.6079C248.185 46.6079 248.443 46.5565 248.68 46.4463C248.916 46.3435 249.116 46.1966 249.278 46.013C249.441 45.8293 249.567 45.6089 249.655 45.3665C249.737 45.1241 249.781 44.8597 249.781 44.5806C249.781 44.3014 249.737 44.0517 249.655 43.8166C249.574 43.5816 249.448 43.3612 249.278 43.1775C249.116 42.9939 248.916 42.847 248.68 42.7441C248.443 42.6413 248.185 42.5899 247.896 42.5899C247.608 42.5899 247.349 42.6413 247.113 42.7441C246.876 42.847 246.677 42.9866 246.514 43.1775C246.352 43.3612 246.219 43.5742 246.13 43.8166C246.041 44.059 245.997 44.3088 245.997 44.5806ZM247.157 40.7021L248.702 39.2183H250.254L248.347 40.7021H247.165H247.157Z" fill="#007fac"/>
<path d="M251.946 41.5248H253.351L255.184 45.7118L257.031 41.5248H258.421L255.553 47.6363H254.637L251.946 41.5248Z" fill="#007fac"/>
<path d="M260.157 44.8303C260.172 45.0948 260.231 45.3298 260.335 45.5428C260.438 45.7559 260.571 45.9468 260.749 46.1011C260.926 46.2554 261.133 46.3802 261.369 46.4757C261.606 46.5712 261.879 46.6153 262.175 46.6153C262.626 46.6153 263.003 46.5198 263.298 46.3362C263.601 46.1525 263.838 45.9175 264.015 45.631L265.109 46.1525C264.976 46.3949 264.806 46.6226 264.614 46.821C264.422 47.0193 264.2 47.1883 263.949 47.3352C263.705 47.4821 263.424 47.5923 263.121 47.6657C262.818 47.7392 262.485 47.7833 262.131 47.7833C261.628 47.7833 261.177 47.7025 260.771 47.5482C260.364 47.3939 260.01 47.1736 259.721 46.8944C259.426 46.6153 259.204 46.2774 259.041 45.8881C258.879 45.4988 258.798 45.0654 258.798 44.6026C258.798 44.1398 258.879 43.6991 259.041 43.3024C259.204 42.9131 259.433 42.5752 259.721 42.2961C260.01 42.0169 260.357 41.7966 260.756 41.635C261.155 41.4734 261.591 41.3926 262.057 41.3926C262.522 41.3926 262.936 41.4734 263.328 41.6276C263.72 41.7819 264.06 42.0023 264.348 42.2814C264.636 42.5605 264.858 42.8911 265.02 43.273C265.183 43.655 265.264 44.0811 265.264 44.5438V44.8377H260.143L260.157 44.8303ZM263.853 43.8827C263.742 43.4861 263.535 43.1629 263.232 42.9058C262.929 42.656 262.537 42.5238 262.072 42.5238C261.606 42.5238 261.222 42.6487 260.896 42.9058C260.571 43.1629 260.35 43.4861 260.231 43.8827H263.845H263.853Z" fill="#007fac"/>
<path d="M266.491 39.2109C266.535 39.1007 266.602 39.0052 266.691 38.9244C266.772 38.8436 266.868 38.7775 266.979 38.7334C267.082 38.6894 267.201 38.6673 267.326 38.6673C267.452 38.6673 267.57 38.6894 267.674 38.7334C267.777 38.7775 267.873 38.8436 267.954 38.9244C268.036 39.0052 268.095 39.1007 268.139 39.2109C268.184 39.3211 268.206 39.4386 268.206 39.5635C268.206 39.6884 268.184 39.8133 268.139 39.9234C268.095 40.0336 268.036 40.1365 267.954 40.2173C267.873 40.2981 267.777 40.3642 267.674 40.4082C267.57 40.4523 267.452 40.4817 267.326 40.4817C267.201 40.4817 267.082 40.4597 266.972 40.4082C266.861 40.3642 266.765 40.2981 266.683 40.2173C266.602 40.1365 266.535 40.041 266.491 39.9308C266.447 39.8206 266.425 39.6957 266.425 39.5635C266.425 39.4386 266.447 39.3211 266.491 39.2109ZM266.654 41.5248H267.991V47.6363H266.654V41.5248Z" fill="#007fac"/>
<path d="M269.314 46.035C269.566 46.1672 269.861 46.2994 270.194 46.4243C270.526 46.5492 270.933 46.6153 271.413 46.6153C271.576 46.6153 271.731 46.608 271.886 46.5933C272.041 46.5786 272.167 46.5418 272.278 46.4978C272.389 46.4537 272.478 46.3876 272.551 46.3141C272.625 46.2407 272.662 46.1378 272.662 46.0203C272.662 45.8587 272.581 45.7191 272.418 45.5943C272.256 45.4694 271.982 45.3445 271.605 45.2049L271.147 45.0801C270.874 44.9993 270.63 44.9038 270.401 44.7936C270.172 44.6834 269.979 44.5585 269.817 44.4116C269.654 44.2647 269.521 44.0884 269.425 43.8827C269.329 43.677 269.285 43.4346 269.285 43.1555C269.285 42.8396 269.344 42.5752 269.455 42.3548C269.573 42.1345 269.728 41.9508 269.928 41.8113C270.127 41.6717 270.364 41.5762 270.63 41.5174C270.896 41.4587 271.184 41.4293 271.487 41.4293C271.872 41.4293 272.263 41.4734 272.67 41.5615C273.076 41.6497 273.453 41.7966 273.793 41.9949L273.667 43.251C273.564 43.1922 273.424 43.1261 273.246 43.0453C273.069 42.9645 272.877 42.8911 272.67 42.8176C272.463 42.7442 272.248 42.6854 272.027 42.6413C271.805 42.5972 271.598 42.5752 271.406 42.5752C271.184 42.5752 270.999 42.6193 270.852 42.7001C270.704 42.7809 270.63 42.9351 270.63 43.1408C270.63 43.3465 270.711 43.5081 270.881 43.6403C271.051 43.7725 271.31 43.8974 271.679 44.0296L272.115 44.1839C272.359 44.2574 272.596 44.3382 272.825 44.4263C273.054 44.5144 273.254 44.6173 273.431 44.7495C273.608 44.8817 273.749 45.0433 273.852 45.2343C273.956 45.4253 274.015 45.6751 274.015 45.9689C274.015 46.3068 273.941 46.5933 273.808 46.821C273.667 47.056 273.475 47.2397 273.239 47.3792C273.002 47.5188 272.721 47.6216 272.396 47.6804C272.071 47.7392 271.731 47.7759 271.376 47.7759C270.903 47.7759 270.489 47.7318 270.157 47.6437C269.817 47.5555 269.499 47.438 269.203 47.2984L269.329 46.0423L269.314 46.035Z" fill="#007fac"/>
<path d="M109.403 17.5193H115.981L128.752 48.0991H120.925L117.903 40.2246H107.489L104.466 48.0991H96.6398L109.411 17.5193H109.403ZM115.833 34.7888L112.714 26.6793L109.499 34.7888H115.833Z" fill="#007fac"/>
<path d="M122.137 24.4829H129.336L135.574 39.4607L141.907 24.4829H149.017L138.116 48.0991H132.263L122.137 24.4829Z" fill="#007fac"/>
<path d="M156.977 24.4829H150.163V48.0991H156.977V24.4829Z" fill="#007fac"/>
<path d="M167.102 14.1256H160.288V48.0918H167.102V14.1256Z" fill="#007fac"/>
<path d="M188.084 48.0991V43.2804C187.862 43.9488 187.5 44.6026 187.005 45.2343C186.51 45.8734 185.926 46.4463 185.253 46.9532C184.581 47.46 183.82 47.8714 182.977 48.1726C182.127 48.4737 181.24 48.628 180.316 48.628C178.654 48.628 177.124 48.3268 175.734 47.7245C174.345 47.1221 173.133 46.2774 172.113 45.1976C171.086 44.1178 170.287 42.847 169.711 41.3779C169.134 39.9161 168.846 38.3221 168.846 36.6106C168.846 34.899 169.112 33.3197 169.637 31.7918C170.162 30.2639 170.923 28.927 171.913 27.7811C172.904 26.6352 174.079 25.7243 175.439 25.0412C176.799 24.3581 178.291 24.0128 179.925 24.0128C181.75 24.0128 183.339 24.4609 184.699 25.3497C186.059 26.2385 187.123 27.5461 187.892 29.2649V24.4976H195.046V48.1138H188.084V48.0991ZM175.986 36.3167C175.986 37.1762 176.126 37.9695 176.414 38.7041C176.702 39.4386 177.102 40.085 177.611 40.658C178.121 41.2309 178.75 41.6864 179.481 42.0169C180.22 42.3475 181.048 42.5164 181.979 42.5164C182.911 42.5164 183.738 42.3475 184.477 42.0169C185.216 41.6864 185.837 41.2309 186.347 40.658C186.857 40.085 187.249 39.4313 187.522 38.7041C187.796 37.9695 187.929 37.1762 187.929 36.3167C187.929 35.4573 187.796 34.7007 187.522 33.9588C187.249 33.2095 186.857 32.5484 186.347 31.9755C185.837 31.4025 185.209 30.9544 184.477 30.6386C183.738 30.3227 182.911 30.1611 181.979 30.1611C181.048 30.1611 180.213 30.3227 179.459 30.6386C178.705 30.9544 178.084 31.4025 177.589 31.9755C177.094 32.5484 176.702 33.2095 176.414 33.9588C176.126 34.708 175.986 35.494 175.986 36.3167Z" fill="#007fac"/>
<path d="M157.938 18.4669C157.938 20.8615 155.979 22.8081 153.57 22.8081C151.16 22.8081 149.202 20.8615 149.202 18.4669C149.202 16.0722 151.16 14.1256 153.57 14.1256C155.979 14.1256 157.938 16.0722 157.938 18.4669Z" fill="#007fac"/>
<path d="M105.169 18.4669C105.169 16.0722 103.21 14.1256 100.801 14.1256C100.379 14.1256 99.9804 14.1844 99.596 14.2946C99.5665 14.3019 99.5295 14.3093 99.5 14.3166C99.16 14.4194 98.8348 14.5737 98.5318 14.7573C97.2754 15.5213 96.4329 16.8949 96.4329 18.4669C96.4329 18.6138 96.4403 18.7607 96.455 18.9003C96.4624 18.9884 96.4772 19.0766 96.492 19.1574C96.4994 19.2088 96.5068 19.2602 96.5142 19.3116C96.8911 21.2141 98.517 22.6612 100.505 22.7934C100.32 24.1304 99.7513 25.5187 98.7535 26.9511C99.4778 26.6352 100.217 26.1724 100.971 25.5627C101.725 24.9531 102.404 24.2626 103.018 23.4913C103.639 22.72 104.141 21.912 104.555 21.0525C104.969 20.1931 105.169 19.3777 105.169 18.6064C105.169 18.6064 105.169 18.5991 105.169 18.5918C105.169 18.5477 105.169 18.511 105.169 18.4669Z" fill="#007fac"/>
<path d="M87.4532 48.0991V43.2804C87.2315 43.9488 86.8694 44.6026 86.3742 45.2343C85.879 45.8734 85.2952 46.4463 84.6226 46.9532C83.9501 47.46 83.1889 47.8714 82.3463 48.1726C81.4964 48.4737 80.6095 48.628 79.6857 48.628C78.0228 48.628 76.493 48.3268 75.1035 47.7245C73.7141 47.1221 72.502 46.2774 71.4821 45.1976C70.4548 44.1178 69.6566 42.847 69.0802 41.3779C68.5037 39.9161 68.2155 38.3221 68.2155 36.6106C68.2155 34.899 68.4815 33.3197 69.0063 31.7918C69.531 30.2639 70.2922 28.927 71.2826 27.7811C72.2729 26.6352 73.448 25.7244 74.8079 25.0412C76.1678 24.3581 77.6607 24.0128 79.294 24.0128C81.1195 24.0128 82.7085 24.4609 84.0683 25.3497C85.4282 26.2385 86.4925 27.5461 87.2611 29.2649V14.0595H94.4152V48.1064H87.4532V48.0991ZM75.3548 36.3167C75.3548 37.1762 75.4952 37.9695 75.7835 38.7041C76.0717 39.4386 76.4708 40.085 76.9807 40.658C77.4907 41.2309 78.1189 41.6864 78.8506 42.0169C79.5896 42.3475 80.4174 42.5164 81.3486 42.5164C82.2798 42.5164 83.1076 42.3475 83.8466 42.0169C84.5857 41.6864 85.2065 41.2309 85.7165 40.658C86.2264 40.085 86.6181 39.4313 86.8916 38.7041C87.165 37.9695 87.298 37.1762 87.298 36.3167C87.298 35.4573 87.165 34.7007 86.8916 33.9588C86.6181 33.2095 86.2264 32.5484 85.7165 31.9755C85.2065 31.4025 84.5783 30.9544 83.8466 30.6386C83.1076 30.3227 82.2798 30.1611 81.3486 30.1611C80.4174 30.1611 79.5822 30.3227 78.8284 30.6386C78.0745 30.9544 77.4537 31.4025 76.9586 31.9755C76.4634 32.5484 76.0717 33.2095 75.7835 33.9588C75.4952 34.708 75.3548 35.494 75.3548 36.3167Z" fill="#007fac"/>
</g>
<defs>
<clipPath id="clip0_32_198">
<rect width="274" height="59" fill="#007fac"/>
</clipPath>
</defs>
</svg>
